<?xml version="1.0" standalone="no"?>
<!DOCTYPE svg PUBLIC "-//W3C//DTD SVG 20010904//EN"
 "http://www.w3.org/TR/2001/REC-SVG-20010904/DTD/svg10.dtd">
<svg version="1.0" xmlns="http://www.w3.org/2000/svg"
 width="734.000000pt" height="734.000000pt" viewBox="0 0 734.000000 734.000000"
 preserveAspectRatio="xMidYMid meet">
<metadata>
Created by potrace 1.14, written by Peter Selinger 2001-2017
</metadata>
<g transform="translate(0.000000,734.000000) scale(0.100000,-0.100000)"
fill="#000000" stroke="none">
<path d="M0 3670 l0 -3670 3670 0 3670 0 0 3670 0 3670 -3670 0 -3670 0 0
-3670z m5931 2140 c17 -32 90 -361 87 -392 -2 -27 -8 -34 -29 -36 -14 -2 -30
3 -36 10 -6 7 -27 85 -47 173 -21 88 -40 162 -42 164 -2 3 -77 -16 -167 -42
-256 -74 -267 -78 -267 -88 0 -6 18 -85 41 -177 22 -92 76 -318 120 -502 44
-184 102 -425 128 -535 27 -110 75 -309 107 -441 l57 -242 69 19 c37 10 79 19
92 19 31 0 47 -37 28 -67 -8 -13 -692 -213 -728 -213 -47 0 -52 70 -7 84 10 3
44 12 76 21 37 11 57 22 57 32 0 8 -25 117 -55 242 -30 124 -84 350 -120 501
-180 751 -275 1143 -278 1147 -4 3 -417 -114 -423 -120 -2 -2 14 -79 36 -171
31 -128 38 -171 30 -186 -11 -21 -54 -27 -65 -10 -11 18 -95 373 -95 402 0 15
4 29 9 32 5 3 175 54 378 112 202 58 422 121 488 141 161 47 423 123 460 133
43 12 87 7 96 -10z m-1975 -668 c10 -7 79 -139 349 -667 70 -137 147 -286 170
-330 23 -44 111 -215 196 -380 222 -435 236 -460 251 -458 7 1 39 7 70 14 41
9 61 10 69 2 9 -9 43 -141 86 -335 14 -63 15 -79 4 -92 -16 -19 -45 -21 -59
-3 -6 7 -28 86 -49 175 -21 89 -42 162 -46 162 -5 0 -212 -59 -460 -131 -249
-72 -604 -174 -790 -227 -337 -97 -338 -97 -333 -122 3 -14 21 -90 39 -170 38
-159 36 -184 -11 -178 -20 2 -29 12 -39 38 -20 60 -83 336 -83 368 0 30 2 32
90 58 85 26 90 29 94 58 3 17 7 477 9 1022 l4 991 -79 -23 c-84 -25 -104 -23
-113 7 -15 48 -7 52 303 141 321 93 312 91 328 80z m-1232 -728 c34 -34 11
-67 -58 -84 -30 -7 -59 -16 -65 -20 -8 -4 11 -100 59 -301 39 -162 93 -386
120 -499 27 -113 94 -393 149 -623 56 -230 101 -423 101 -427 0 -5 4 -20 9
-33 l10 -25 68 19 c72 20 100 18 105 -9 7 -30 -3 -50 -30 -61 -77 -30 -693
-200 -707 -195 -20 8 -30 51 -16 68 6 7 47 24 91 36 64 18 79 26 75 39 -2 9
-18 75 -35 146 -31 130 -71 297 -150 621 l-41 171 -320 -92 c-176 -51 -323
-95 -326 -99 -4 -4 13 -86 36 -184 24 -97 75 -307 113 -467 38 -159 71 -292
74 -294 2 -2 40 6 85 18 92 25 112 19 107 -33 l-3 -30 -355 -103 c-195 -56
-365 -102 -377 -103 -16 0 -25 8 -29 27 -10 40 6 55 84 77 51 13 72 24 72 35
0 23 -446 1880 -453 1888 -3 2 -35 -4 -72 -14 -65 -17 -67 -17 -81 2 -37 51
-20 60 272 145 440 128 412 121 429 104 19 -19 19 -48 1 -66 -7 -8 -39 -20
-70 -27 -30 -7 -58 -16 -61 -21 -5 -8 29 -158 156 -685 23 -93 43 -172 45
-174 2 -2 150 38 329 90 261 75 324 96 320 109 -12 41 -195 814 -195 825 0 23
-14 25 -65 10 -65 -20 -82 -19 -95 6 -17 31 9 63 61 76 42 10 354 101 509 148
93 28 105 29 124 9z m2619 -2032 c-16 -10 48 -228 66 -225 6 2 11 -1 11 -5 0
-9 -67 -32 -91 -32 -12 0 -12 2 -1 9 11 7 11 16 1 52 -16 56 -22 63 -51 55
-47 -12 -49 -18 -33 -74 11 -36 21 -52 33 -53 14 0 13 -2 -3 -8 -11 -5 -35
-12 -52 -15 -27 -6 -32 -5 -27 7 7 20 -45 199 -63 213 -19 16 -16 21 15 28 15
4 35 9 44 12 12 4 15 0 11 -15 -3 -11 0 -36 7 -56 12 -36 13 -37 49 -30 20 4
38 8 40 10 8 8 -22 105 -32 106 -15 1 53 27 73 28 11 1 12 -1 3 -7z m-319 -96
c-7 -18 57 -227 68 -220 4 3 8 1 8 -4 0 -5 -17 -14 -39 -20 -49 -15 -52 -15
-44 3 6 17 -36 175 -47 175 -3 0 -11 -47 -16 -105 -6 -58 -12 -107 -15 -109
-2 -2 -19 -7 -36 -11 -27 -5 -32 -4 -27 8 7 18 -54 217 -67 217 -24 0 -5 18
30 28 50 15 50 15 44 -7 -5 -19 33 -159 47 -174 4 -5 11 31 15 80 9 116 14
133 39 143 32 13 46 12 40 -4z m-326 -98 c-19 -15 -42 -83 -33 -98 3 -6 37
-37 75 -69 l69 -59 -31 -11 c-33 -12 -65 -15 -56 -5 3 3 -15 25 -41 49 -25 24
-47 42 -49 40 -8 -8 30 -105 41 -105 19 -1 -15 -17 -50 -25 -26 -5 -32 -4 -28
7 7 18 -51 212 -65 216 -20 7 -9 19 29 30 50 15 49 16 44 -10 -2 -13 2 -40 9
-61 l14 -38 21 60 c12 34 18 61 13 61 -17 0 -11 18 8 23 37 10 47 8 30 -5z
m-272 -74 c-9 -24 55 -224 73 -224 28 0 3 -10 -139 -55 -152 -47 -175 -52
-164 -34 8 14 -57 230 -68 223 -4 -3 -8 -1 -8 4 0 7 64 32 83 32 3 0 3 -8 0
-19 -4 -18 43 -198 57 -214 4 -4 18 -3 33 2 l26 10 -34 107 c-19 59 -39 110
-46 115 -8 4 2 11 27 18 50 14 54 14 48 -3 -3 -8 9 -60 26 -115 31 -102 42
-115 77 -93 17 11 -46 222 -66 222 -21 0 -5 13 32 27 44 16 50 15 43 -3z
m-636 -23 c0 -5 -5 -11 -11 -13 -8 -3 1 -42 24 -118 19 -63 45 -147 56 -187
16 -54 25 -71 36 -67 8 4 15 2 15 -4 0 -10 -111 -52 -137 -52 -7 0 -13 5 -13
10 0 6 7 10 15 10 8 0 15 2 15 4 0 7 -110 369 -113 372 -7 7 -122 -35 -125
-45 -2 -6 20 -90 49 -186 43 -143 56 -175 71 -175 10 0 18 -4 18 -8 0 -11
-140 -55 -148 -46 -4 3 -1 9 6 11 18 7 17 12 -40 205 -45 152 -56 178 -73 178
-42 0 6 20 165 68 177 54 190 57 190 43z m288 -93 c-10 -9 -19 -45 -27 -110
-15 -135 -15 -149 7 -141 12 4 14 3 7 -5 -6 -7 -24 -13 -40 -16 -17 -2 -25 -2
-19 1 7 2 14 18 17 36 5 35 -17 66 -106 144 l-47 42 47 14 c47 14 69 13 46 -1
-8 -5 1 -20 28 -46 21 -22 41 -37 43 -35 2 2 7 28 11 57 6 46 5 52 -12 53 -13
1 -11 3 7 9 41 13 57 12 38 -2z m-748 -54 c13 -32 13 -67 1 -59 -5 3 -12 19
-16 35 -8 35 -7 35 -69 14 -56 -19 -57 0 12 -224 42 -134 51 -155 70 -158 39
-6 24 -17 -55 -39 -78 -23 -99 -23 -71 0 13 11 9 33 -40 195 -48 158 -58 182
-76 182 -39 0 -1 19 99 49 124 37 133 37 145 5z m158 -341 c3 -19 -1 -23 -22
-23 -21 0 -26 5 -26 26 0 21 4 25 23 22 14 -2 23 -11 25 -25z"/>
<path d="M5210 5548 c-58 -17 -106 -32 -108 -33 -1 -1 20 -96 48 -211 27 -115
93 -387 145 -604 52 -217 119 -498 150 -625 30 -126 67 -282 82 -345 15 -63
28 -116 29 -118 3 -5 228 58 237 67 4 4 -15 102 -43 217 -27 115 -93 387 -145
604 -52 217 -119 499 -150 625 -30 127 -67 281 -82 343 -20 84 -31 112 -43
111 -8 0 -62 -14 -120 -31z"/>
<path d="M3835 5030 c-33 -10 -86 -26 -118 -35 l-57 -16 156 -307 c86 -169
189 -370 229 -447 40 -77 162 -315 271 -530 261 -513 248 -491 270 -487 24 4
228 63 232 67 2 1 -166 333 -373 736 -207 404 -411 803 -453 886 -42 84 -81
153 -87 152 -5 0 -37 -9 -70 -19z"/>
<path d="M3596 3909 c-4 -540 -5 -983 -3 -985 2 -2 167 44 368 102 200 58 399
115 442 127 43 12 76 26 75 32 -2 5 -70 141 -152 300 -82 160 -243 475 -359
700 -243 475 -358 699 -361 703 -2 1 -6 -439 -10 -979z"/>
<path d="M2370 4246 c-90 -28 -104 -35 -102 -52 2 -10 55 -233 117 -494 109
-454 146 -610 270 -1122 30 -125 55 -234 55 -242 0 -8 4 -18 10 -21 15 -9 240
58 240 72 0 6 -74 321 -165 700 -293 1221 -286 1193 -304 1192 -9 -1 -63 -16
-121 -33z"/>
<path d="M1305 3938 c-55 -16 -101 -31 -102 -32 -2 -2 149 -639 271 -1141 24
-99 74 -308 111 -465 37 -157 71 -288 74 -292 6 -7 224 52 236 63 5 6 -21 121
-130 574 -30 127 -87 363 -126 525 -39 162 -88 367 -109 455 -21 88 -48 202
-60 253 -25 108 -16 105 -165 60z"/>
<path d="M5296 2361 c-9 -14 57 -221 71 -221 19 0 17 12 -19 127 -29 97 -39
115 -52 94z"/>
<path d="M5164 2323 c-8 -3 -2 -36 18 -106 32 -107 40 -123 56 -113 8 5 -47
210 -60 220 -1 2 -8 1 -14 -1z"/>
<path d="M4983 2251 c4 -18 18 -70 32 -117 24 -78 36 -96 49 -76 8 14 -59 215
-73 220 -11 4 -13 -3 -8 -27z"/>
<path d="M4843 2232 c-15 -10 47 -222 65 -222 6 0 12 6 12 13 0 15 -56 207
-62 212 -2 2 -9 1 -15 -3z"/>
<path d="M4556 2142 c-9 -14 58 -215 73 -220 17 -6 12 23 -24 144 -24 78 -36
96 -49 76z"/>
<path d="M4644 2065 c-4 -9 -5 -17 -3 -18 2 -1 25 -21 51 -45 44 -39 78 -54
78 -33 0 4 -27 31 -60 60 -48 42 -61 49 -66 36z"/>
<path d="M4380 2093 c0 -5 14 -53 30 -107 17 -55 30 -101 30 -103 0 -1 7 -3
15 -3 19 0 20 -5 -17 116 -19 64 -37 104 -45 104 -7 0 -13 -3 -13 -7z"/>
<path d="M4270 2054 c0 -9 14 -60 31 -114 23 -76 34 -98 45 -93 8 3 13 11 10
17 -2 6 -17 55 -32 108 -17 56 -34 98 -41 98 -7 0 -13 -7 -13 -16z"/>
<path d="M4156 2032 c-9 -14 58 -215 73 -220 17 -6 12 26 -25 146 -23 76 -35
95 -48 74z"/>
<path d="M3718 2063 c-10 -2 -18 -8 -18 -11 0 -4 15 -56 34 -117 18 -60 43
-143 55 -183 20 -67 24 -72 44 -66 12 3 23 8 25 9 2 2 -20 79 -48 172 -28 92
-53 176 -56 186 -5 17 -7 18 -36 10z"/>
<path d="M3493 1993 c-19 -7 -18 -13 39 -200 48 -159 54 -173 75 -173 13 0 23
6 23 13 0 29 -106 367 -115 366 -5 0 -16 -3 -22 -6z"/>
<path d="M3910 1942 c0 -4 27 -34 60 -67 52 -51 60 -56 60 -36 0 14 -17 39
-47 67 -44 41 -73 55 -73 36z"/>
<path d="M3141 1901 c-12 -8 -6 -39 40 -190 52 -175 55 -181 79 -179 14 2 24
8 24 13 -6 43 -109 365 -118 365 -6 0 -17 -4 -25 -9z"/>
<path d="M3450 1606 c0 -9 7 -16 16 -16 17 0 14 22 -4 28 -7 2 -12 -3 -12 -12z"/>
</g>
</svg>
